<svg id="Group_1" data-name="Group 1" xmlns="http://www.w3.org/2000/svg" width="1920" height="1080" viewBox="0 0 1920 1080">
  <rect id="Rectangle_1" data-name="Rectangle 1" width="1920" height="1080" fill="#0d1317"/>
  <g id="_310906" data-name="310906" transform="translate(487.838 1089)">
    <path id="Path_1" data-name="Path 1" d="M795.716-858.046c-1.771,6.641-3.689,13.577-4.28,15.422l-.959,3.394-4.649.516c-2.509.3-6.788,1.033-9.519,1.623-2.73.664-5.313.959-5.682.738-.369-.3-4.427-5.829-8.928-12.47-4.575-6.567-8.559-12.249-8.854-12.544-.369-.443-19.406,7.6-20.439,8.633-.148.074,1.623,7.084,3.911,15.5,2.214,8.486,3.984,15.422,3.837,15.5-1.919,1.4-9.888,7.748-12.323,9.888l-3.32,2.878-14.241-6.862L696.028-822.7l-6.272,8.855a107.42,107.42,0,0,0-6.272,9.371c0,.3,5.018,5.46,11.068,11.585l11.068,11.068-2.435,5.9a85.993,85.993,0,0,0-3.394,9.371c-1.107,4.058-.147,3.763-17.045,5.018-5.46.443-11.363.959-12.987,1.181l-3.026.369-.959,10.625c-.517,5.9-.812,10.921-.517,11.142.221.221,6.862,2.214,14.758,4.354s14.758,4.058,15.2,4.353.812,1.771.812,3.247a72.019,72.019,0,0,0,1.4,9.371,41.676,41.676,0,0,1,1.107,7.157c-.221.3-5.977,4.427-12.839,9.15-6.936,4.722-12.544,8.928-12.544,9.3,0,.812,8.043,18.447,8.707,19.185.443.443,22.579-4.87,29.368-7.084,1.254-.369,2.214.443,5.682,4.87a77.442,77.442,0,0,0,6.346,7.526,11.031,11.031,0,0,1,2.287,2.73c0,.3-3.025,6.936-6.641,14.684-3.689,7.822-6.641,14.315-6.493,14.389,1.845,1.623,17.34,12.175,17.93,12.175.443,0,5.682-4.944,11.732-10.994L753.066-644.8l3.763,1.7c2.066.885,6.124,2.361,8.928,3.32a45,45,0,0,1,5.755,2.14c.3.3,1.033,7.305,1.7,15.643.664,8.264,1.4,15.274,1.7,15.569.221.3,5.239.959,11.068,1.476,8.633.812,10.625.885,10.921.074.221-.517,2.14-7.379,4.28-15.2l3.837-14.167,2.509-.516c1.4-.3,5.9-1.107,10.109-1.845l7.526-1.4,9.076,13.06c8.707,12.544,9.076,12.987,10.847,12.175,1.033-.443,5.534-2.509,10.109-4.649l8.264-3.837-3.689-13.872c-1.992-7.6-3.837-14.536-4.058-15.422-.3-1.254.369-2.14,3.542-4.353a100.453,100.453,0,0,0,7.748-6.493l3.837-3.616,14.462,6.788c7.9,3.763,14.536,6.715,14.684,6.567,1.033-1.181,11.659-16.455,11.88-17.119.148-.517-4.649-6.051-10.625-12.323-9.74-10.109-10.921-11.585-10.183-12.913.443-.812,1.992-4.944,3.542-9.224l2.73-7.748,9.076-.812c5.017-.517,12.175-1.107,15.864-1.4l6.715-.516.885-8.928c.443-4.944.812-10.035.812-11.216v-2.214l-15.126-4.058c-13.061-3.468-15.2-4.206-15.422-5.534-.148-.812-.812-4.8-1.4-8.855a78.228,78.228,0,0,0-1.623-8.486c-.3-.812,3.247-3.616,12.839-10.257l13.208-9.076-4.575-9.888c-2.8-6.124-4.944-9.814-5.608-9.888-.59,0-7.305,1.7-14.905,3.689-14.094,3.763-16.086,4.132-16.086,3.1,0-.369-2.656-3.837-5.9-7.822l-5.977-7.157,6.346-13.429c3.542-7.379,6.567-13.8,6.788-14.241.148-.516-3.763-3.763-8.781-7.231l-9-6.346L854.23-840.411,843.014-829.2l-6.567-2.656c-3.542-1.4-7.9-2.952-9.519-3.394-3.542-.959-3.173.517-4.8-20.882l-.885-11.585-3.025-.443c-2.952-.369-17.783-1.845-18.816-1.845C799.184-870,797.487-864.614,795.716-858.046Zm13.946,43.756A78.5,78.5,0,0,1,872.013-762.2a76.925,76.925,0,0,1,4.058,25.383A75.878,75.878,0,0,1,859.1-688.26a78.3,78.3,0,0,1-41.764,27.154c-8.412,2.287-25.678,2.8-34.238,1.033-29.737-6.051-52.906-27.523-60.875-56.522-2.656-9.445-3.32-24.645-1.549-34.09a78.161,78.161,0,0,1,23.169-42.723A76.933,76.933,0,0,1,809.662-814.29Z" transform="translate(-174.304)" fill="#070b0d"/>
    <path id="Path_2" data-name="Path 2" d="M182.742-763.706c-.221.738-2.878,9.74-5.977,20.07-3.025,10.257-5.534,18.742-5.534,18.89,0,.074-2.435.369-5.313.664-2.952.3-9,1.254-13.5,2.214-4.427.959-8.117,1.7-8.19,1.623-.074,0-5.165-7.379-11.363-16.307-6.124-8.928-11.437-16.529-11.732-16.824-.443-.443-26.121,10.552-27.3,11.659-.148.221,1.992,9.3,4.722,20.365,4.354,17.266,4.87,20.144,3.911,20.661a152.484,152.484,0,0,0-14.02,10.773c-2.14,1.918-4.427,3.911-5.091,4.427-1.033.812-3.837-.221-19.775-7.526-10.183-4.649-18.816-8.486-19.185-8.486-.517,0-15.274,19.332-17.266,22.653-.369.664,3.985,5.386,14.167,15.348L55.974-649.04l-2.435,5.313c-1.328,2.952-3.542,8.486-4.87,12.323s-2.435,7.084-2.509,7.231c-.148.148-9.592,1.033-21.1,2.066s-21.177,2.14-21.4,2.361c-.443.517-3.837,28.261-3.468,28.556.148.074,9.371,2.435,20.513,5.313l20.292,5.165.517,5.46a173.24,173.24,0,0,0,3.247,18.816c.369,1.4-1.771,3.1-16.824,13.208-9.445,6.42-17.488,11.88-17.783,12.175-.517.443,9.888,24.5,11.216,25.973.221.3,9.74-1.918,21.1-4.944,11.29-3.025,20.587-5.46,20.661-5.313,1.107,1.771,10.183,13.06,12.987,16.16l3.763,4.206-9.445,18.521-9.519,18.595,2.287,1.771c1.254.959,6.641,4.8,11.954,8.412l9.666,6.641L100.1-455.567c8.338-8.043,15.791-14.536,16.455-14.536a45.417,45.417,0,0,1,6.715,2.509c3.025,1.254,8.19,3.1,11.437,4.058l5.9,1.7.443,3.689c.3,1.992.885,10.994,1.4,19.923.517,9,1.181,16.676,1.476,17.119.517.885,28.482,3.542,29.22,2.8.221-.221,1.992-6.051,4.058-12.839,7.748-26.342,7.969-26.785,9.74-27.154.885-.148,4.575-.738,8.117-1.181,3.616-.517,8.855-1.476,11.659-2.214l5.165-1.254,5.018,7.084c2.73,3.911,8.043,11.511,11.806,16.9,5.608,8.043,7.084,9.74,8.264,9.371,1.845-.59,25.088-11.29,25.6-11.732.221-.221-1.845-9.15-4.575-19.775-2.656-10.7-4.87-19.628-4.87-19.849,0-.3,2.583-2.435,5.755-4.722,3.1-2.361,7.822-6.2,10.478-8.559l4.8-4.206,7.379,3.32c4.058,1.845,12.618,5.829,19.037,8.781l11.659,5.387,8.855-11.88,8.855-11.954-14.684-14.758-14.758-14.831,2.878-5.9a120.044,120.044,0,0,0,4.8-12.027c1.107-3.32,2.214-6.272,2.509-6.42s9.888-1.181,21.4-2.214,21.03-1.992,21.1-2.066c.148-.221,2.878-25.826,2.878-27.375,0-1.254-2.656-2.066-20.292-6.641l-20.292-5.239-.885-7.6c-.443-4.206-1.4-9.961-1.992-12.692-.664-2.8-1.181-5.239-1.181-5.46,0-.148,7.969-5.682,17.709-12.249,9.74-6.493,17.709-11.954,17.709-12.1,0-.074-2.656-5.977-5.9-13.06-4.649-10.257-6.124-12.765-7.157-12.618-.738.148-10.109,2.583-20.808,5.386-10.7,2.878-19.48,5.091-19.628,4.944s-1.7-2.287-3.542-4.8c-1.845-2.435-5.608-6.862-8.338-9.74l-4.944-5.313,9.371-18.3c5.091-10.109,9.3-18.668,9.3-19.111,0-.738-22.358-16.381-23.465-16.381-.59,0-10.4,9.15-27.154,25.309l-3.837,3.616-7.822-3.025c-4.28-1.7-9.961-3.616-12.544-4.28l-4.722-1.254-.369-4.132c-.3-2.214-.885-11.29-1.328-20.07-.516-8.855-1.107-16.381-1.4-16.75-.221-.443-6.567-1.254-14.02-1.845C181.93-765.182,183.185-765.256,182.742-763.706Zm21.03,72.386c40.362,9.519,69.213,38.148,77.477,76.961,2.14,9.961,2.361,27.228.443,37.263-8.043,43.166-41.985,77.109-85.742,85.816-33.647,6.641-68.992-3.468-92.752-26.638a96.13,96.13,0,0,1-19.849-27.523,91.787,91.787,0,0,1-9.076-29.368c-4.649-31.286,6.789-64.048,30.622-87.586,15.2-14.979,36.23-25.826,57.85-29.884C171.452-693.829,195.212-693.312,203.771-691.32Z" transform="translate(0 -27.562)" fill="#070b0d"/>
    <path id="Path_3" data-name="Path 3" d="M575.512-616.39c-2.214,8.19-4.427,14.905-5.091,15.422a7.4,7.4,0,0,1-3.763.959,65.268,65.268,0,0,0-9.15,1.328l-6.42,1.328-8.928-13.134c-4.944-7.305-9.371-13.061-9.814-12.913-.443.221-5.018,2.287-10.257,4.575-8.264,3.763-9.371,4.427-8.928,5.755.221.812,2.066,7.748,3.985,15.422l3.542,13.946-4.132,3.025a97.5,97.5,0,0,0-7.674,6.346l-3.542,3.32-4.575-2.066c-2.583-1.107-8.855-4.132-14.02-6.715s-9.74-4.722-10.109-4.722-3.542,4.058-7.084,8.928l-6.42,8.928,11.216,11.289,11.216,11.216-2.066,4.722c-1.033,2.583-2.73,6.862-3.616,9.519-1.476,4.354-1.845,4.8-3.763,5.018-1.181.074-8.19.59-15.569,1.107-7.453.59-13.651,1.181-13.8,1.328-.3.3-2.656,21.546-2.361,21.841.074.074,6.936,2.066,15.348,4.354l15.2,4.206.516,4.87a82.534,82.534,0,0,0,1.55,9.519c.59,2.583,1.033,4.944,1.033,5.239s-5.829,4.5-12.913,9.3-12.913,9.076-12.913,9.371c0,.59,8.043,18.964,8.633,19.7.074.148,6.862-1.4,14.979-3.468,8.043-2.14,14.979-3.837,15.348-3.837s2.14,1.919,3.911,4.206c1.771,2.361,4.649,5.829,6.346,7.674l3.173,3.394-6.936,14.463-6.936,14.389,8.559,6.124c4.649,3.394,8.855,6.346,9.224,6.493s5.682-4.722,11.88-10.847l11.142-11.142,3.32,1.476c1.845.885,5.977,2.509,9.224,3.689,3.616,1.254,6.051,2.583,6.42,3.394.221.738.885,7.9,1.4,15.864.516,8.043,1.107,14.61,1.328,14.61s4.8.517,10.035,1.107c5.313.59,10.109,1.107,10.773,1.107.812,0,2.066-3.468,5.091-14.241,2.14-7.748,4.206-14.758,4.575-15.5.443-.812,1.549-1.254,3.394-1.254a79.167,79.167,0,0,0,9.74-1.4,67.083,67.083,0,0,1,7.084-1.254s3.911,5.829,8.707,12.839c4.8,7.084,8.559,12.913,8.412,13.061s-4.944-1.845-10.7-4.5c-5.829-2.583-10.625-4.722-10.773-4.722-.516,0-12.323,17.562-12.323,18.226,0,.3,5.018,5.387,11.142,11.216,7.748,7.453,10.994,10.994,10.7,11.806-.221.664-1.7,5.018-3.32,9.666-2.214,6.272-3.32,8.559-4.28,8.707-.738.074-7.748.812-15.569,1.55-7.9.812-14.389,1.55-14.536,1.7-.443.443-1.992,21.325-1.623,21.694.221.221,7.084,2.14,15.348,4.206l14.905,3.911,1.7,8.781c.885,4.87,1.845,9.371,2.066,9.961.3.812-3.173,3.689-12.47,10.257-7.084,5.018-12.913,9.445-12.913,9.74a98.5,98.5,0,0,0,4.353,9.371c2.361,4.87,4.427,9.223,4.575,9.666.221.517,5.9-.812,15.791-3.542,8.486-2.435,15.5-4.354,15.5-4.28.148.664,6.567,8.338,9.445,11.29l3.616,3.837-6.641,14.61-6.641,14.61,8.928,6.124c4.944,3.394,9.15,6.124,9.445,6.124s5.386-5.018,11.363-11.216c10.4-10.625,10.921-11.142,12.839-10.4,1.033.443,5.239,1.919,9.3,3.247s7.453,2.509,7.6,2.583.959,7.231,1.845,15.938l1.623,15.717,4.8.443c2.656.3,7.6.664,11.068.959l6.272.517,2.14-8.338c1.107-4.575,2.952-11.511,3.911-15.5l1.919-7.084,5.755-.885a94.851,94.851,0,0,0,9.666-1.845,15.717,15.717,0,0,1,4.427-.664c.221.148,4.575,5.977,9.519,12.913,4.944,6.862,9.223,12.4,9.519,12.323,6.124-2.435,19.185-9.223,19.185-9.888,0-.59-1.845-7.526-4.132-15.5-2.214-7.969-3.985-14.536-3.837-14.684.148-.074,2.214-1.771,4.649-3.689s5.829-4.87,7.526-6.42l3.025-2.952,13.946,6.346c7.6,3.468,14.241,6.346,14.61,6.346.443,0,3.616-4.058,7.01-9l6.2-9-11.511-11.142L795.475-255.05l1.771-4.058c.959-2.214,2.435-6.42,3.32-9.224a39.3,39.3,0,0,1,1.845-5.46c.148-.148,7.3-.959,15.938-1.845l15.717-1.55.812-10.7c.443-5.9.664-10.921.369-11.216-.221-.221-7.084-2.14-15.127-4.206-8.117-2.066-14.831-3.911-14.979-4.058a29.863,29.863,0,0,1-.959-4.944c-.443-2.583-1.254-7.01-1.918-9.74a24.4,24.4,0,0,1-.959-5.239c.148-.074,5.977-4.28,12.987-9.224l12.692-9-1.7-3.837c-4.87-10.773-7.526-15.938-8.264-16.012-.443,0-7.379,1.845-15.5,4.132l-14.684,4.058-1.328-1.7c-.738-.959-3.616-4.28-6.272-7.453-2.73-3.173-5.018-6.051-5.165-6.346-.074-.3,2.656-6.789,6.124-14.389s6.272-14.094,6.272-14.315c-.074-.3-4.132-3.247-9.076-6.641l-9-6.124L757.179-402.7l-11.142,11.437-5.165-2.14a99.939,99.939,0,0,0-9.593-3.32l-4.353-1.254L725.45-413.4c-.812-8.486-1.7-15.643-1.992-15.938-.664-.738-20.956-2.066-21.546-1.476-.3.221-2.214,7.231-4.354,15.422l-3.837,14.979-4.353.517A80.744,80.744,0,0,0,680-398.272c-2.8.664-5.313,1.181-5.682,1.181-.59,0-18.447-24.5-18.447-25.309,0-.221,5.018,2.066,11.142,5.091s11.216,5.46,11.363,5.46c.074,0,3.1-3.985,6.641-8.855l6.42-8.855-10.994-11.585-10.994-11.511,2.73-6.715a93.339,93.339,0,0,0,3.247-9.15c.3-1.4.885-2.583,1.328-2.73.517-.221,7.674-.812,15.938-1.476,8.338-.59,15.2-1.254,15.348-1.328.443-.443,2.509-21.4,2.14-21.768-.221-.221-7.157-2.287-15.348-4.575L679.849-504.6l-.221-2.509c-.221-2.656-2.066-13.282-2.8-15.864-.369-1.254,1.549-2.8,12.913-10.478l13.208-9-4.427-9.961c-2.509-5.46-4.87-9.961-5.387-9.961s-7.3,1.623-15.2,3.689c-7.9,1.992-14.536,3.689-14.758,3.689a15.9,15.9,0,0,1-2.8-3.32c-1.328-1.845-4.206-5.387-6.346-7.822l-3.911-4.5,6.567-13.577c3.616-7.453,6.641-13.946,6.715-14.389.221-.885-16.086-13.208-17.488-13.208-.369,0-5.534,4.8-11.437,10.7s-11.142,10.7-11.659,10.7a12.581,12.581,0,0,1-3.689-1.4c-1.476-.738-5.46-2.287-8.707-3.394l-6.051-1.992-.443-4.575c-.221-2.435-.812-9.519-1.254-15.569-.443-6.124-1.033-11.29-1.254-11.511-.517-.443-17.193-2.14-20.439-2.14C579.718-631,578.98-629.155,575.512-616.39Zm15.5,41.1a78.487,78.487,0,0,1,63.753,64.638,78.356,78.356,0,0,1-52.094,86.48c-39.181,13.5-82.274-6.346-98.064-45.011a81.586,81.586,0,0,1-2.878-49.659A101.319,101.319,0,0,1,512.5-542.233c8.633-13.134,24.867-25.383,40.288-30.474A84.568,84.568,0,0,1,591.008-575.29ZM652.99-424.024l2.214,1.181-9.814,4.8c-5.386,2.656-9.888,4.944-9.961,5.018s1.771,6.936,4.132,15.348l4.28,15.274-5.608,4.427a95.989,95.989,0,0,0-7.748,6.641l-2.066,2.214-3.247-1.623a10.574,10.574,0,0,1-3.247-1.918c0-.3,4.5-2.435,9.961-4.8s9.961-4.5,9.961-4.649c0-.221-1.623-6.789-3.689-14.684-1.992-7.9-3.689-14.758-3.689-15.348,0-.517,2.214-2.656,5.018-4.722a64.679,64.679,0,0,0,7.084-5.977C649.079-425.426,649.891-425.574,652.99-424.024Zm70.394,50.1c12.987,3.837,23.612,9.814,32.762,18.521,18,17.119,26.859,40.362,24.424,64.343-2.8,27.6-18.668,50.545-43.166,62.572q-21.14,10.293-42.649,7.969c-44.568-5.091-75.928-44.716-69.8-88.472,4.058-29.294,24.5-54.234,52.094-63.458,10.109-3.394,14.389-3.985,27.523-3.689C715.119-375.915,717.628-375.619,723.384-373.922Z" transform="translate(-116.434 -62.646)" fill="#070b0d"/>
    <path id="Path_4" data-name="Path 4" d="M1047.365-446.678l-3.911,15.5-5.608.885c-3.1.443-7.526,1.328-9.961,1.918a20.33,20.33,0,0,1-4.5.885c-.074-.148-4.058-5.682-8.855-12.4-4.722-6.715-8.928-12.47-9.223-12.765-.812-.885-20.734,8.781-20.292,9.961.738,2.066,8.412,29.663,8.264,29.81-5.239,4.058-9.666,7.748-12.1,10.109l-3.1,2.952-14.094-6.42c-7.748-3.468-14.315-6.346-14.684-6.346s-3.394,4.058-6.715,8.928l-6.124,9,11.29,11.142,11.216,11.142-1.254,3.32c-.738,1.845-2.14,5.977-3.173,9.224s-1.992,6.051-2.14,6.2c-.147.221-7.3,1.033-15.938,1.845l-15.643,1.55-.516,5.9c-.3,3.247-.664,8.264-.959,11.142l-.443,5.239,15.5,3.911,15.5,3.911.517,3.394c.443,3.173,1.845,10.773,2.8,14.831.369,1.7-.664,2.583-12.544,10.994-7.084,5.018-12.839,9.371-12.692,9.666,2.583,6.346,9.224,19.185,9.961,19.185.59,0,7.526-1.845,15.569-4.132l14.536-4.058,1.845,2.361c1.033,1.328,3.985,4.87,6.567,7.9l4.649,5.387-6.346,13.872c-3.468,7.674-6.346,14.167-6.346,14.536s4.058,3.468,9.076,6.862l9,6.124L997.632-224.8c10.7-11.142,11.216-11.585,12.913-10.625.959.517,5.239,2.14,9.519,3.616l7.748,2.656,1.476,15.127c.812,8.264,1.7,15.422,1.992,15.864.369.517,4.427,1.033,9.961,1.328,5.239.3,9.961.664,10.625.885.959.221,1.845-2.509,5.091-15.2,3.468-13.5,4.132-15.569,5.46-15.791.885-.148,4.575-.812,8.19-1.476,3.689-.664,7.453-1.328,8.486-1.623,1.771-.369,2.583.59,10.7,11.954,4.87,6.789,9.076,12.618,9.3,12.987s4.87-1.55,10.33-4.206c7.453-3.689,9.814-5.165,9.666-6.124-.148-.664-2.066-7.6-4.28-15.274l-3.911-14.02,2.361-1.845c1.254-1.033,4.722-3.911,7.674-6.493a58.371,58.371,0,0,1,5.755-4.575c.221,0,6.715,2.878,14.462,6.346,7.748,3.542,14.315,6.051,14.61,5.755.3-.369,3.173-4.427,6.346-9.076l5.756-8.338-11.29-11.29-11.29-11.29,2.656-7.305c1.476-3.985,2.952-8.264,3.321-9.445l.664-2.214,15.569-1.55c8.633-.885,15.791-1.7,15.938-1.845.369-.443,1.992-21.472,1.7-21.768-.148-.221-7.084-2.066-15.5-4.206l-15.127-3.837-.885-5.682c-.443-3.173-1.328-7.674-1.918-9.961s-.812-4.353-.516-4.649,5.9-4.28,12.4-8.855,12.1-8.559,12.4-8.855c.959-.812-8.781-20.734-9.961-20.292-.517.221-6.936,2.066-14.241,4.058-7.305,2.066-13.8,3.911-14.463,4.058-.812.3-1.845-.517-3.025-2.361a88.73,88.73,0,0,0-6.493-7.822l-4.575-5.018,6.346-13.946c3.468-7.748,6.346-14.315,6.346-14.684s-4.058-3.394-8.928-6.715l-8.928-6.051-11.29,11.216-11.289,11.29-3.247-1.328c-1.7-.738-5.977-2.214-9.445-3.32l-6.272-1.992-1.476-15.791-1.476-15.791-6.272-.517c-3.468-.221-8.486-.664-11.142-.959l-4.87-.443Zm21.03,41.1c17.119,3.542,34.09,14.094,45.085,27.892,5.534,6.936,12.027,19.554,14.241,27.818a78.157,78.157,0,0,1-20.882,76.961c-30.4,29.737-79.765,29.515-109.649-.369-15.5-15.5-23.022-33.5-23.169-55.194-.148-19.923,5.977-36.451,19.111-51.947,11.437-13.429,30.474-23.686,48.7-26.195C1048.693-407.571,1061.09-407.054,1068.395-405.578Z" transform="translate(-240.819 -106.918)" fill="#070b0d"/>
  </g>
</svg>
