<?xml version="1.0" encoding="utf-8"?>
<!-- Generator: Adobe Illustrator 23.0.3, SVG Export Plug-In . SVG Version: 6.00 Build 0)  -->
<svg version="1.1" id="Layer_1" xmlns="http://www.w3.org/2000/svg" xmlns:xlink="http://www.w3.org/1999/xlink" x="0px" y="0px"
	 viewBox="0 0 1920 1080" style="enable-background:new 0 0 1920 1080;" xml:space="preserve">
<style type="text/css">
	.st0{fill:#2A4250;stroke:#000000;stroke-miterlimit:10;}
	.st1{fill:#070B0D;}
	.st2{fill:none;stroke:#000000;stroke-miterlimit:10;}
	.st3{fill:#0E161B;}
	.st4{fill:#152128;}
	.st5{fill:#1C2C35;}
</style>
<path class="st0" d="M1185.8,675.4L973.2,478.1c-1.8-1.8-3.7-3.5-5.6-5c17.5-46.4,7.7-100.8-29.6-138
	c-27.2-27.2-64.8-40.9-103.2-37.6c-4.4,0.4-8.1,3.2-9.6,7.3c-1.5,4.1-0.5,8.7,2.6,11.8l63.2,63.2l-22.2,70l-70,22.2l-63.2-63.2
	c-3.1-3.1-7.7-4.1-11.8-2.6c-4.1,1.5-7,5.2-7.3,9.6c-3.3,38.4,10.4,76,37.6,103.2c37.2,37.2,91.6,47.1,138,29.6
	c1.6,1.9,3.3,3.8,5.1,5.6l199,210.9c0.1,0.1,0.2,0.1,0.2,0.2c24.8,24.8,65.2,24.8,90,0c24.8-24.8,24.5-64.9-0.3-89.7
	C1186,675.6,1185.9,675.5,1185.8,675.4z"/>
<g>
	
		<image style="overflow:visible;opacity:0.75;" width="1185" height="634" xlink:href="C3248142.png"  transform="matrix(1 0 0 1 373 247)">
	</image>
	<g>
		<path class="st1" d="M1458.7,719.4c-25.9-5.2-55.8-16.2-61.9-42c-5.9-25,14.4-47.6,23.8-71.5c16.1-40.8-1.8-89.6-34.8-118.6
			c-32.9-29-77.9-40.9-121.7-43.7s-87.6,2.8-131.5,4.2c-48,1.5-104.9-7.2-127-49.9c-13-25.2-10.1-56.5-24.6-80.9
			c-9.1-15.5-24.3-26.4-40.1-35.1c-37.2-20.5-80-30.7-122.4-29.2c-25,0.9-55.2,11-58.9,35.7c-2.6,17.7,10.4,35.5,5.6,52.8
			c-2.2,8-8,14.5-14.2,19.9c-40.2,35.6-99.5,38.7-152.8,32.7c-53.3-6-107.3-19.1-160-9.2c-15.9,3-32,8.4-43.9,19.3
			s-18.9,28.5-13.7,43.9c7.9,23.6,37.1,30.6,61.1,36.9c28.9,7.7,56.7,19.7,82.1,35.5c5.1,3.2,10.3,6.8,13.2,12.1
			c4,7.6,2.1,17-1.7,24.7c-11.6,23.5-37.5,35.3-60,48.6c-22.5,13.3-45.5,34.3-43.4,60.4c2.6,32,39.7,48,71.3,53.5
			c70.9,12.3,143.5,6.4,215.4,7.9s146.6,11.3,206.8,50.8c40.8,26.8,75.7,67.3,123.9,75c38.7,6.1,76.9-10.7,113.2-25.4
			c55.8-22.6,115.1-41.3,175.1-36.4c20.3,1.7,42.1,6.4,59.5,17.5c11,7.1,17.8,19.2,28.7,25.9c27.9,17.3,70.7,3.2,90.7-20.2
			c14.3-16.7,20.9-41.8,10.5-61.1C1514.5,730.4,1484.6,724.5,1458.7,719.4z M1186.4,765.4c-24.8,24.8-65.2,24.8-90,0
			c-0.1-0.1-0.2-0.2-0.2-0.2l-199-210.9c-1.8-1.9-3.5-3.7-5.1-5.6c-46.3,17.5-100.7,7.6-138-29.6c-27.2-27.2-40.9-64.8-37.6-103.2
			c0.4-4.4,3.2-8.1,7.3-9.6c4.1-1.5,8.7-0.5,11.8,2.6l63.2,63.2l70-22.2l22.2-70l-63.2-63.2c-3.1-3.1-4.1-7.7-2.6-11.8
			c1.5-4.1,5.2-7,9.6-7.3c38.4-3.3,76,10.4,103.2,37.6c37.3,37.3,47.1,91.7,29.6,138c1.9,1.6,3.8,3.2,5.6,5l212.6,197.3
			c0.1,0.1,0.2,0.2,0.3,0.3C1210.9,700.5,1211.2,740.6,1186.4,765.4z"/>
		<path class="st2" d="M1458.7,719.4c-25.9-5.2-55.8-16.2-61.9-42c-5.9-25,14.4-47.6,23.8-71.5c16.1-40.8-1.8-89.6-34.8-118.6
			c-32.9-29-77.9-40.9-121.7-43.7s-87.6,2.8-131.5,4.2c-48,1.5-104.9-7.2-127-49.9c-13-25.2-10.1-56.5-24.6-80.9
			c-9.1-15.5-24.3-26.4-40.1-35.1c-37.2-20.5-80-30.7-122.4-29.2c-25,0.9-55.2,11-58.9,35.7c-2.6,17.7,10.4,35.5,5.6,52.8
			c-2.2,8-8,14.5-14.2,19.9c-40.2,35.6-99.5,38.7-152.8,32.7c-53.3-6-107.3-19.1-160-9.2c-15.9,3-32,8.4-43.9,19.3
			s-18.9,28.5-13.7,43.9c7.9,23.6,37.1,30.6,61.1,36.9c28.9,7.7,56.7,19.7,82.1,35.5c5.1,3.2,10.3,6.8,13.2,12.1
			c4,7.6,2.1,17-1.7,24.7c-11.6,23.5-37.5,35.3-60,48.6c-22.5,13.3-45.5,34.3-43.4,60.4c2.6,32,39.7,48,71.3,53.5
			c70.9,12.3,143.5,6.4,215.4,7.9s146.6,11.3,206.8,50.8c40.8,26.8,75.7,67.3,123.9,75c38.7,6.1,76.9-10.7,113.2-25.4
			c55.8-22.6,115.1-41.3,175.1-36.4c20.3,1.7,42.1,6.4,59.5,17.5c11,7.1,17.8,19.2,28.7,25.9c27.9,17.3,70.7,3.2,90.7-20.2
			c14.3-16.7,20.9-41.8,10.5-61.1C1514.5,730.4,1484.6,724.5,1458.7,719.4z M1186.4,765.4c-24.8,24.8-65.2,24.8-90,0
			c-0.1-0.1-0.2-0.2-0.2-0.2l-199-210.9c-1.8-1.9-3.5-3.7-5.1-5.6c-46.3,17.5-100.7,7.6-138-29.6c-27.2-27.2-40.9-64.8-37.6-103.2
			c0.4-4.4,3.2-8.1,7.3-9.6c4.1-1.5,8.7-0.5,11.8,2.6l63.2,63.2l70-22.2l22.2-70l-63.2-63.2c-3.1-3.1-4.1-7.7-2.6-11.8
			c1.5-4.1,5.2-7,9.6-7.3c38.4-3.3,76,10.4,103.2,37.6c37.3,37.3,47.1,91.7,29.6,138c1.9,1.6,3.8,3.2,5.6,5l212.6,197.3
			c0.1,0.1,0.2,0.2,0.3,0.3C1210.9,700.5,1211.2,740.6,1186.4,765.4z"/>
	</g>
</g>
<g>
	
		<image style="overflow:visible;opacity:0.75;" width="1310" height="782" xlink:href="C3248146.png"  transform="matrix(1 0 0 1 315 186)">
	</image>
	<g>
		<path class="st3" d="M1574.4,695.4c-23-14.6-60.2-10.3-70.7-35.4c-6-14.5,1.4-30.7,8.5-44.7c17-33.5,33.7-70.3,27-107.3
			c-8.7-47.8-53.4-79.9-96.7-101.9c-64.7-32.8-137-55.1-209.2-48.1c-29.2,2.8-57.9,10.3-87.2,12.2c-29.3,1.9-60.6-2.7-83.4-21.2
			c-17.2-14-27.8-34.3-40.5-52.5c-54.5-78.1-157.6-119-250.8-99.3c-10.9,2.3-22.1,5.5-30.8,12.6c-13.5,11-18.7,28.9-28,43.6
			c-27.2,42.5-85.2,51.7-135.5,48.8c-50.3-2.9-102.8-13.3-149.7,5.1c-40.3,15.9-65.1,50.4-77.7,90.5c-9.2,29.2-48.4,65.2-17.1,94.9
			c16.6,15.8,40.8,21.1,58.1,36.1c4.4,3.8,8.5,8.6,9.5,14.3c2,11.2-7.7,20.8-16,28.5c-25.4,23.5-47.4,54-48.8,88.6
			c-1.3,34.2,18.6,66.8,45.7,87.7s60.7,31.6,94.3,38.4c44.5,9.1,90.3,12,135.6,8.7c51.8-3.8,105.7-15.4,154.5,2.5
			c75.3,27.6,115.9,117.4,193,139.7c43.7,12.6,90.8,0.6,132.8-17s82-40.7,126.2-51.5c50.7-12.4,104-7.8,155.4,1
			c56.8,9.7,121.8,22.5,166.6-13.7c14.5-11.7,25.1-27.5,34.7-43.4c11.2-18.6,21.7-38.4,23.9-60.1
			C1600.5,730.9,1592.8,707,1574.4,695.4z M1516.6,814.8c-20,23.5-62.8,37.5-90.7,20.2c-10.9-6.7-17.7-18.8-28.7-25.9
			c-17.4-11.1-39.2-15.9-59.5-17.5c-60-5-119.3,13.8-175.1,36.4c-36.3,14.7-74.5,31.6-113.2,25.4c-48.2-7.6-83.1-48.2-123.9-75
			c-60.1-39.5-134.8-49.4-206.8-50.8s-144.5,4.4-215.4-7.9c-31.6-5.5-68.7-21.5-71.3-53.5c-2.1-26.1,20.8-47.1,43.4-60.4
			c22.5-13.3,48.5-25.1,60-48.6c3.8-7.7,5.7-17.1,1.7-24.7c-2.8-5.3-8-8.9-13.2-12.1c-25.4-15.8-53.2-27.8-82.1-35.5
			c-24.1-6.4-53.2-13.3-61.1-36.9c-5.2-15.4,1.8-32.9,13.7-43.9s28-16.3,43.9-19.3c52.8-9.9,106.7,3.2,160,9.2
			c53.3,6,112.6,2.8,152.8-32.7c6.2-5.5,12-12,14.2-19.9c4.8-17.2-8.2-35.1-5.6-52.8c3.6-24.7,33.9-34.8,58.9-35.7
			c42.4-1.5,85.2,8.7,122.4,29.2c15.7,8.7,30.9,19.6,40.1,35.1c14.4,24.4,11.6,55.7,24.6,80.9c22,42.7,78.9,51.4,127,49.9
			c43.9-1.4,87.7-6.9,131.5-4.2s88.7,14.7,121.7,43.7c32.9,29,50.9,77.7,34.8,118.6c-9.4,23.9-29.7,46.5-23.8,71.5
			c6,25.7,36,36.8,61.9,42c25.9,5.2,55.8,11.1,68.3,34.3C1537.5,773,1530.9,798.1,1516.6,814.8z"/>
		<path class="st2" d="M1574.4,695.4c-23-14.6-60.2-10.3-70.7-35.4c-6-14.5,1.4-30.7,8.5-44.7c17-33.5,33.7-70.3,27-107.3
			c-8.7-47.8-53.4-79.9-96.7-101.9c-64.7-32.8-137-55.1-209.2-48.1c-29.2,2.8-57.9,10.3-87.2,12.2c-29.3,1.9-60.6-2.7-83.4-21.2
			c-17.2-14-27.8-34.3-40.5-52.5c-54.5-78.1-157.6-119-250.8-99.3c-10.9,2.3-22.1,5.5-30.8,12.6c-13.5,11-18.7,28.9-28,43.6
			c-27.2,42.5-85.2,51.7-135.5,48.8c-50.3-2.9-102.8-13.3-149.7,5.1c-40.3,15.9-65.1,50.4-77.7,90.5c-9.2,29.2-48.4,65.2-17.1,94.9
			c16.6,15.8,40.8,21.1,58.1,36.1c4.4,3.8,8.5,8.6,9.5,14.3c2,11.2-7.7,20.8-16,28.5c-25.4,23.5-47.4,54-48.8,88.6
			c-1.3,34.2,18.6,66.8,45.7,87.7s60.7,31.6,94.3,38.4c44.5,9.1,90.3,12,135.6,8.7c51.8-3.8,105.7-15.4,154.5,2.5
			c75.3,27.6,115.9,117.4,193,139.7c43.7,12.6,90.8,0.6,132.8-17s82-40.7,126.2-51.5c50.7-12.4,104-7.8,155.4,1
			c56.8,9.7,121.8,22.5,166.6-13.7c14.5-11.7,25.1-27.5,34.7-43.4c11.2-18.6,21.7-38.4,23.9-60.1
			C1600.5,730.9,1592.8,707,1574.4,695.4z M1516.6,814.8c-20,23.5-62.8,37.5-90.7,20.2c-10.9-6.7-17.7-18.8-28.7-25.9
			c-17.4-11.1-39.2-15.9-59.5-17.5c-60-5-119.3,13.8-175.1,36.4c-36.3,14.7-74.5,31.6-113.2,25.4c-48.2-7.6-83.1-48.2-123.9-75
			c-60.1-39.5-134.8-49.4-206.8-50.8s-144.5,4.4-215.4-7.9c-31.6-5.5-68.7-21.5-71.3-53.5c-2.1-26.1,20.8-47.1,43.4-60.4
			c22.5-13.3,48.5-25.1,60-48.6c3.8-7.7,5.7-17.1,1.7-24.7c-2.8-5.3-8-8.9-13.2-12.1c-25.4-15.8-53.2-27.8-82.1-35.5
			c-24.1-6.4-53.2-13.3-61.1-36.9c-5.2-15.4,1.8-32.9,13.7-43.9s28-16.3,43.9-19.3c52.8-9.9,106.7,3.2,160,9.2
			c53.3,6,112.6,2.8,152.8-32.7c6.2-5.5,12-12,14.2-19.9c4.8-17.2-8.2-35.1-5.6-52.8c3.6-24.7,33.9-34.8,58.9-35.7
			c42.4-1.5,85.2,8.7,122.4,29.2c15.7,8.7,30.9,19.6,40.1,35.1c14.4,24.4,11.6,55.7,24.6,80.9c22,42.7,78.9,51.4,127,49.9
			c43.9-1.4,87.7-6.9,131.5-4.2s88.7,14.7,121.7,43.7c32.9,29,50.9,77.7,34.8,118.6c-9.4,23.9-29.7,46.5-23.8,71.5
			c6,25.7,36,36.8,61.9,42c25.9,5.2,55.8,11.1,68.3,34.3C1537.5,773,1530.9,798.1,1516.6,814.8z"/>
	</g>
</g>
<g>
	
		<image style="overflow:visible;opacity:0.75;" width="1453" height="893" xlink:href="C3248141.png"  transform="matrix(1 0 0 1 241 136)">
	</image>
	<g>
		<path class="st4" d="M1582.5,647.5c-16.4-33.8,10.5-71.6,17.3-108.6c9.6-52.7-23.9-104.1-64.2-139.4
			c-61.8-54-143.5-84.6-225.6-84.3c-59.4,0.2-123.2,15-175.2-13.8c-30.6-16.9-51.7-46.5-77.8-69.8c-67.2-59.9-162.2-74.6-251.5-86.3
			c-40.9-5.4-87.4-9.2-118.6,18c-15.9,13.8-25.1,33.8-39.9,48.8c-37,37.3-96.7,34.5-149.2,33.3c-63.8-1.4-131.2,4.7-183.9,40.7
			c-52.7,36-83.8,110.2-53.4,166.3c11.8,21.7,30.9,38.3,46.1,57.8c15.2,19.5,26.8,44.8,19.6,68.5c-10.2,33.4-44.9,17.9-60.2,37
			c-21.5,26.9-21.8,86.2-14.5,117.5c14.2,61.2,69,106.8,128.7,126.4c59.8,19.5,124.3,17.2,186.9,11.8c49.2-4.2,101.1-9.8,145.8,11.1
			c44.2,20.7,74,64.1,116.7,87.7c34.7,19.1,75.3,23.8,114.7,28.1c48.4,5.3,98.9,10.3,144.3-7.3c24-9.3,45.2-24.5,68.6-35.2
			c129.1-58.8,293.9,30.4,417.8-38.8c45.9-25.6,79.7-72,90.1-123.6c6.2-31.1,3.1-66.5-18.5-89.9
			C1627.1,682.5,1595,673.3,1582.5,647.5z M1598.2,752.5c-2.2,21.6-12.7,41.5-23.9,60.1c-9.6,15.9-20.2,31.7-34.7,43.4
			c-44.8,36.2-109.9,23.4-166.6,13.7c-51.4-8.8-104.7-13.4-155.4-1c-44.2,10.8-84.2,33.9-126.2,51.5s-89,29.6-132.8,17
			c-77-22.3-117.7-112.1-193-139.7c-48.8-17.9-102.7-6.3-154.5-2.5c-45.3,3.3-91.1,0.3-135.6-8.7c-33.5-6.8-67.2-17.5-94.3-38.4
			s-47-53.4-45.7-87.7c1.3-34.6,23.4-65.1,48.8-88.6c8.4-7.8,18.1-17.3,16-28.5c-1-5.8-5.1-10.5-9.5-14.3
			c-17.3-15-41.5-20.3-58.1-36.1c-31.3-29.7,7.9-65.8,17.1-94.9c12.6-40,37.4-74.6,77.7-90.5c46.9-18.5,99.4-8,149.7-5.1
			c50.3,2.9,108.3-6.3,135.5-48.8c9.4-14.6,14.5-32.6,28-43.6c8.7-7,19.8-10.3,30.8-12.6c93.2-19.7,196.3,21.2,250.8,99.3
			c12.7,18.2,23.2,38.5,40.5,52.5c22.8,18.5,54.1,23.1,83.4,21.2c29.3-1.9,58-9.4,87.2-12.2c72.2-6.9,144.5,15.4,209.2,48.1
			c43.3,22,88,54.1,96.7,101.9c6.7,36.9-9.9,73.8-27,107.3c-7.1,14-14.5,30.2-8.5,44.7c10.4,25.1,47.7,20.9,70.7,35.4
			C1592.8,707,1600.5,730.9,1598.2,752.5z"/>
		<path class="st2" d="M1582.5,647.5c-16.4-33.8,10.5-71.6,17.3-108.6c9.6-52.7-23.9-104.1-64.2-139.4
			c-61.8-54-143.5-84.6-225.6-84.3c-59.4,0.2-123.2,15-175.2-13.8c-30.6-16.9-51.7-46.5-77.8-69.8c-67.2-59.9-162.2-74.6-251.5-86.3
			c-40.9-5.4-87.4-9.2-118.6,18c-15.9,13.8-25.1,33.8-39.9,48.8c-37,37.3-96.7,34.5-149.2,33.3c-63.8-1.4-131.2,4.7-183.9,40.7
			c-52.7,36-83.8,110.2-53.4,166.3c11.8,21.7,30.9,38.3,46.1,57.8c15.2,19.5,26.8,44.8,19.6,68.5c-10.2,33.4-44.9,17.9-60.2,37
			c-21.5,26.9-21.8,86.2-14.5,117.5c14.2,61.2,69,106.8,128.7,126.4c59.8,19.5,124.3,17.2,186.9,11.8c49.2-4.2,101.1-9.8,145.8,11.1
			c44.2,20.7,74,64.1,116.7,87.7c34.7,19.1,75.3,23.8,114.7,28.1c48.4,5.3,98.9,10.3,144.3-7.3c24-9.3,45.2-24.5,68.6-35.2
			c129.1-58.8,293.9,30.4,417.8-38.8c45.9-25.6,79.7-72,90.1-123.6c6.2-31.1,3.1-66.5-18.5-89.9
			C1627.1,682.5,1595,673.3,1582.5,647.5z M1598.2,752.5c-2.2,21.6-12.7,41.5-23.9,60.1c-9.6,15.9-20.2,31.7-34.7,43.4
			c-44.8,36.2-109.9,23.4-166.6,13.7c-51.4-8.8-104.7-13.4-155.4-1c-44.2,10.8-84.2,33.9-126.2,51.5s-89,29.6-132.8,17
			c-77-22.3-117.7-112.1-193-139.7c-48.8-17.9-102.7-6.3-154.5-2.5c-45.3,3.3-91.1,0.3-135.6-8.7c-33.5-6.8-67.2-17.5-94.3-38.4
			s-47-53.4-45.7-87.7c1.3-34.6,23.4-65.1,48.8-88.6c8.4-7.8,18.1-17.3,16-28.5c-1-5.8-5.1-10.5-9.5-14.3
			c-17.3-15-41.5-20.3-58.1-36.1c-31.3-29.7,7.9-65.8,17.1-94.9c12.6-40,37.4-74.6,77.7-90.5c46.9-18.5,99.4-8,149.7-5.1
			c50.3,2.9,108.3-6.3,135.5-48.8c9.4-14.6,14.5-32.6,28-43.6c8.7-7,19.8-10.3,30.8-12.6c93.2-19.7,196.3,21.2,250.8,99.3
			c12.7,18.2,23.2,38.5,40.5,52.5c22.8,18.5,54.1,23.1,83.4,21.2c29.3-1.9,58-9.4,87.2-12.2c72.2-6.9,144.5,15.4,209.2,48.1
			c43.3,22,88,54.1,96.7,101.9c6.7,36.9-9.9,73.8-27,107.3c-7.1,14-14.5,30.2-8.5,44.7c10.4,25.1,47.7,20.9,70.7,35.4
			C1592.8,707,1600.5,730.9,1598.2,752.5z"/>
	</g>
</g>
<g>
	
		<image style="overflow:visible;opacity:0.75;" width="1952" height="1112" xlink:href="C3248143.png"  transform="matrix(1 0 0 1 -6 -6)">
	</image>
	<g>
		<path class="st5" d="M0,0v1080h1920V0H0z M1665,793.4c-10.3,51.6-44.1,98-90.1,123.6c-123.9,69.1-288.7-20.1-417.8,38.8
			c-23.4,10.7-44.6,25.9-68.6,35.2c-45.4,17.6-95.9,12.6-144.3,7.3c-39.4-4.3-80-9-114.7-28.1c-42.7-23.6-72.5-67-116.7-87.7
			c-44.7-20.9-96.6-15.4-145.8-11.1c-62.6,5.4-127.2,7.8-186.9-11.8c-59.8-19.5-114.5-65.1-128.7-126.4c-7.3-31.4-7-90.7,14.5-117.5
			c15.3-19.1,50-3.6,60.2-37c7.2-23.6-4.4-49-19.6-68.5c-15.2-19.5-34.4-36.1-46.1-57.8c-30.4-56.1,0.7-130.3,53.4-166.3
			c52.7-36,120.1-42.1,183.9-40.7c52.5,1.1,112.2,4,149.2-33.3c14.8-15,24-35,39.9-48.8c31.1-27.1,77.6-23.4,118.6-18
			c89.3,11.8,184.3,26.4,251.5,86.3c26.1,23.3,47.2,52.9,77.8,69.8c52,28.8,115.8,14,175.2,13.8c82-0.3,163.8,30.3,225.6,84.3
			c40.3,35.2,73.8,86.7,64.2,139.4c-6.7,37-33.7,74.8-17.3,108.6c12.5,25.8,44.7,34.9,64.1,56C1668.1,726.9,1671.3,762.3,1665,793.4
			z"/>
		<path class="st2" d="M0,0v1080h1920V0H0z M1665,793.4c-10.3,51.6-44.1,98-90.1,123.6c-123.9,69.1-288.7-20.1-417.8,38.8
			c-23.4,10.7-44.6,25.9-68.6,35.2c-45.4,17.6-95.9,12.6-144.3,7.3c-39.4-4.3-80-9-114.7-28.1c-42.7-23.6-72.5-67-116.7-87.7
			c-44.7-20.9-96.6-15.4-145.8-11.1c-62.6,5.4-127.2,7.8-186.9-11.8c-59.8-19.5-114.5-65.1-128.7-126.4c-7.3-31.4-7-90.7,14.5-117.5
			c15.3-19.1,50-3.6,60.2-37c7.2-23.6-4.4-49-19.6-68.5c-15.2-19.5-34.4-36.1-46.1-57.8c-30.4-56.1,0.7-130.3,53.4-166.3
			c52.7-36,120.1-42.1,183.9-40.7c52.5,1.1,112.2,4,149.2-33.3c14.8-15,24-35,39.9-48.8c31.1-27.1,77.6-23.4,118.6-18
			c89.3,11.8,184.3,26.4,251.5,86.3c26.1,23.3,47.2,52.9,77.8,69.8c52,28.8,115.8,14,175.2,13.8c82-0.3,163.8,30.3,225.6,84.3
			c40.3,35.2,73.8,86.7,64.2,139.4c-6.7,37-33.7,74.8-17.3,108.6c12.5,25.8,44.7,34.9,64.1,56C1668.1,726.9,1671.3,762.3,1665,793.4
			z"/>
	</g>
</g>
</svg>
